<svg width="25" height="24" viewBox="0 0 25 24" fill="none" xmlns="http://www.w3.org/2000/svg">
<path d="M13.8115 18.2761C14.7996 16.414 18.0932 16.414 18.0932 16.414C21.5252 16.3782 21.9888 14.2944 22.2987 13.2412C21.744 17.7226 18.2244 21.2849 13.7635 21.9046C13.4409 21.2256 13.0587 19.6946 13.8115 18.2761Z" fill="#9F9F9F"/>
<path d="M5.38102 5.8339L4.96938 5.48184C4.93511 5.45252 4.90234 5.42182 4.87111 5.38985C3.31752 7.15213 2.375 9.466 2.375 12C2.375 17.4608 6.75207 21.8992 12.1892 21.9983C11.8358 20.9435 11.6052 19.234 12.4866 17.5732C13.2967 16.0465 14.9266 15.4456 15.9649 15.1903C16.5317 15.051 17.0528 14.9831 17.4292 14.9493C17.6192 14.9323 17.7768 14.9235 17.8906 14.919C17.9476 14.9168 17.9939 14.9156 18.0281 14.9149L18.0702 14.9143L18.0814 14.9143C19.4622 14.8991 19.9981 14.4916 20.2454 14.2132C20.5513 13.8688 20.6712 13.4605 20.8382 12.8917L20.8599 12.818C21.058 12.1447 21.6906 11.7093 22.3718 11.743C22.309 9.25352 21.3363 6.99003 19.7739 5.27266C19.7423 5.45036 19.7047 5.61557 19.6671 5.76183C19.4975 6.4234 19.2128 7.13716 18.8634 7.66739C18.5215 8.1863 17.9142 8.64995 17.5105 8.94003C17.2058 9.15893 16.8944 9.34078 16.6378 9.48867L16.5457 9.54169C16.314 9.67497 16.1298 9.78114 15.9544 9.89699C15.5984 10.1322 15.3849 10.3411 15.2402 10.6241C15.3282 10.9464 15.3907 11.3168 15.3917 11.7041C15.3941 12.6256 14.9224 13.3537 14.3586 13.8081C13.8039 14.2551 13.0862 14.5078 12.359 14.4999C9.40917 14.4677 7.67897 12.0613 7.45618 9.5816C7.3914 8.8606 7.06705 8.08373 6.61379 7.35988C6.173 6.65591 5.67475 6.10474 5.38102 5.8339Z" fill="#9F9F9F"/>
<path d="M8.95016 9.44737C8.7629 7.36316 7.1556 5.42105 6.37535 4.71053L5.94434 4.34189C7.68292 2.88037 9.92633 2 12.3754 2C14.5887 2 16.6342 2.7191 18.2908 3.93642C18.5248 4.64695 18.079 6.13158 17.6109 6.84211C17.4413 7.09947 17.0568 7.41898 16.6352 7.72186C15.6847 8.40477 14.4852 8.74254 13.8754 10C13.701 10.3595 13.7085 10.7108 13.7923 11.0163C13.8526 11.2358 13.8911 11.4745 13.8917 11.708C13.8937 12.4629 13.1302 13.0082 12.3754 13C10.4111 12.9786 9.1252 11.3955 8.95016 9.44737Z" fill="#9F9F9F"/>
</svg>
