<svg width="52" height="64" viewBox="0 0 52 64" fill="none" xmlns="http://www.w3.org/2000/svg">
<path d="M17 52H36L34.6495 52.4137C31.4535 53.3926 28.7152 55.4863 26.9326 58.3138V58.3138C26.7203 58.6506 26.2399 58.6791 25.9892 58.3698L25.7932 58.128C23.568 55.3828 20.632 53.3009 17.3052 52.1093L17 52Z" fill="#1A241B"/>
<g filter="url(#filter0_b_2_4)">
<rect y="5" width="52" height="47" rx="16" fill="#1A241B"/>
</g>
<path d="M23.7602 23.2133C25.0163 20.96 25.6444 19.8333 26.5834 19.8333C27.5223 19.8333 28.1504 20.96 29.4065 23.2133L29.7314 23.7963C30.0884 24.4366 30.2668 24.7567 30.5451 24.968C30.8234 25.1792 31.17 25.2577 31.8631 25.4145L32.4941 25.5573C34.9333 26.1092 36.1529 26.3851 36.4431 27.3182C36.7332 28.2512 35.9018 29.2235 34.2389 31.168L33.8087 31.6711C33.3362 32.2237 33.0999 32.4999 32.9936 32.8417C32.8873 33.1835 32.9231 33.5522 32.9945 34.2894L33.0595 34.9606C33.3109 37.555 33.4366 38.8522 32.677 39.4289C31.9174 40.0056 30.7755 39.4798 28.4916 38.4282L27.9008 38.1562C27.2518 37.8574 26.9273 37.708 26.5834 37.708C26.2394 37.708 25.9149 37.8574 25.2659 38.1562L24.6751 38.4282C22.3913 39.4798 21.2494 40.0056 20.4897 39.4289C19.7301 38.8522 19.8558 37.555 20.1072 34.9606L20.1722 34.2894C20.2437 33.5522 20.2794 33.1835 20.1731 32.8417C20.0668 32.4999 19.8305 32.2237 19.358 31.6711L18.9278 31.168C17.2649 29.2235 16.4335 28.2512 16.7236 27.3182C17.0138 26.3851 18.2334 26.1092 20.6726 25.5573L21.3036 25.4145C21.9967 25.2577 22.3433 25.1792 22.6216 24.968C22.8999 24.7567 23.0783 24.4366 23.4353 23.7963L23.7602 23.2133Z" fill="white"/>
<path d="M17.6786 16.9171C17.7135 16.7937 17.9326 16.793 17.9684 16.9161C18.132 17.4786 18.4353 18.31 18.8939 18.7655C19.3526 19.2211 20.186 19.5188 20.7496 19.6785C20.873 19.7135 20.8737 19.9326 20.7505 19.9684C20.1881 20.132 19.3567 20.4353 18.9011 20.8939C18.4456 21.3526 18.1479 22.186 17.9881 22.7496C17.9531 22.873 17.7341 22.8737 17.6983 22.7505C17.5347 22.1881 17.2314 21.3567 16.7727 20.9011C16.3141 20.4456 15.4807 20.1479 14.9171 19.9881C14.7937 19.9531 14.793 19.7341 14.9161 19.6982C15.4786 19.5347 16.31 19.2314 16.7655 18.7727C17.2211 18.3141 17.5188 17.4807 17.6786 16.9171Z" fill="white"/>
<path fill-rule="evenodd" clip-rule="evenodd" d="M34.1667 17.7917C34.6499 17.7917 35.0417 18.1834 35.0417 18.6667V18.9583H35.3333C35.8166 18.9583 36.2083 19.3501 36.2083 19.8333C36.2083 20.3166 35.8166 20.7083 35.3333 20.7083H35.0417V21C35.0417 21.4832 34.6499 21.875 34.1667 21.875C33.6834 21.875 33.2917 21.4832 33.2917 21V20.7083H33C32.5168 20.7083 32.125 20.3166 32.125 19.8333C32.125 19.3501 32.5168 18.9583 33 18.9583H33.2917V18.6667C33.2917 18.1834 33.6834 17.7917 34.1667 17.7917Z" fill="white"/>
<defs>
<filter id="filter0_b_2_4" x="-4" y="1" width="60" height="55" filterUnits="userSpaceOnUse" color-interpolation-filters="sRGB">
<feFlood flood-opacity="0" result="BackgroundImageFix"/>
<feGaussianBlur in="BackgroundImageFix" stdDeviation="2"/>
<feComposite in2="SourceAlpha" operator="in" result="effect1_backgroundBlur_2_4"/>
<feBlend mode="normal" in="SourceGraphic" in2="effect1_backgroundBlur_2_4" result="shape"/>
</filter>
</defs>
</svg>
