<svg width="25" height="24" viewBox="0 0 25 24" fill="none" xmlns="http://www.w3.org/2000/svg">
<path fill-rule="evenodd" clip-rule="evenodd" d="M10.6737 21.5277L10.9238 21.1053C11.3246 20.4282 11.5249 20.0897 11.8441 19.9009C12.1633 19.712 12.5797 19.6987 13.4124 19.6721C14.1932 19.6471 14.718 19.579 15.1667 19.3931C16.1114 19.0018 16.8619 18.2513 17.2532 17.3066C17.5467 16.5981 17.5467 15.6999 17.5467 13.9035V13.1324C17.5467 10.6083 17.5467 9.34622 16.9786 8.4191C16.6607 7.90033 16.2245 7.46416 15.7057 7.14626C14.7786 6.57813 13.5166 6.57812 10.9925 6.57812H8.67922C6.15513 6.57812 4.89308 6.57813 3.96597 7.14626C3.4472 7.46416 3.01104 7.90033 2.69313 8.4191C2.125 9.34622 2.125 10.6083 2.125 13.1324V13.9035C2.125 15.6999 2.125 16.5981 2.41848 17.3066C2.80978 18.2513 3.56033 19.0018 4.50502 19.3931C4.95371 19.579 5.47848 19.6471 6.25927 19.6721C7.09198 19.6987 7.50834 19.712 7.82753 19.9009C8.14672 20.0897 8.3471 20.4282 8.74785 21.1053L8.99791 21.5277C9.37047 22.1572 10.3012 22.1572 10.6737 21.5277ZM13.2093 14.289C13.7417 14.289 14.1732 13.8574 14.1732 13.3251C14.1732 12.7928 13.7417 12.3613 13.2093 12.3613C12.677 12.3613 12.2455 12.7928 12.2455 13.3251C12.2455 13.8574 12.677 14.289 13.2093 14.289ZM10.7997 13.3251C10.7997 13.8574 10.3682 14.289 9.83584 14.289C9.30352 14.289 8.87199 13.8574 8.87199 13.3251C8.87199 12.7928 9.30352 12.3613 9.83584 12.3613C10.3682 12.3613 10.7997 12.7928 10.7997 13.3251ZM6.46235 14.289C6.99467 14.289 7.42621 13.8574 7.42621 13.3251C7.42621 12.7928 6.99467 12.3613 6.46235 12.3613C5.93003 12.3613 5.49849 12.7928 5.49849 13.3251C5.49849 13.8574 5.93003 14.289 6.46235 14.289Z" fill="#9F9F9F"/>
<path d="M15.2946 2C16.4464 1.99999 17.3622 1.99999 18.0967 2.06982C18.8499 2.14143 19.4867 2.29154 20.0539 2.63915C20.6375 2.9968 21.1282 3.48748 21.4858 4.0711C21.8335 4.63836 21.9836 5.27514 22.0552 6.02829C22.125 6.76279 22.125 7.67871 22.125 8.83039V9.61699C22.125 10.4367 22.125 11.0886 22.0889 11.6173C22.052 12.1581 21.975 12.6226 21.7948 13.0575C21.3546 14.1202 20.5103 14.9646 19.4475 15.4048C19.4209 15.4158 19.3942 15.4265 19.3673 15.4367C19.239 15.4858 19.1292 15.5278 19.0327 15.5591C19.0467 15.0903 19.0467 14.5563 19.0467 13.9537V13.0614C19.0467 11.8598 19.0467 10.8532 18.9689 10.0349C18.8875 9.17817 18.7103 8.37421 18.2575 7.63536C17.8159 6.91475 17.2101 6.30889 16.4895 5.8673C15.7506 5.41453 14.9467 5.23733 14.0899 5.15588C13.2716 5.07807 12.265 5.07809 11.0634 5.07812H8.60826C7.79217 5.0781 7.06605 5.07809 6.42776 5.10245C6.4575 4.9994 6.49824 4.88128 6.54606 4.74264C6.6274 4.50682 6.73019 4.28381 6.86054 4.0711C7.21818 3.48748 7.70886 2.9968 8.29248 2.63915C8.85973 2.29154 9.49652 2.14143 10.2497 2.06982C10.9842 1.99999 11.9 1.99999 13.0518 2H15.2946Z" fill="#9F9F9F"/>
</svg>
