<svg width="25" height="24" viewBox="0 0 25 24" fill="none" xmlns="http://www.w3.org/2000/svg">
<path d="M21.875 16.829V11.1623C21.875 10.1187 21.875 9.5969 21.5919 9.20407C21.3631 8.88674 20.9962 8.71808 20.3417 8.49101C20.2078 10.0972 19.6759 11.7375 18.8405 13.1732C17.8678 14.8448 16.4234 16.3393 14.572 17.147C13.493 17.6177 12.257 17.6177 11.178 17.147C9.32664 16.3393 7.88218 14.8448 6.90949 13.1732C6.27586 12.0842 5.8168 10.8776 5.57362 9.65732C5.19107 9.60098 4.8975 9.62988 4.64417 9.77122C4.54309 9.82762 4.44888 9.89552 4.36341 9.97358C3.875 10.4197 3.875 11.2491 3.875 12.908V17.8377C3.875 18.8813 3.875 19.4031 4.15814 19.7959C4.44127 20.1888 4.93629 20.3538 5.92632 20.6838L6.30988 20.8116L6.30989 20.8116C7.88686 21.3373 8.67535 21.6001 9.48188 21.6016C9.7248 21.6021 9.96742 21.5849 10.2078 21.5501C11.006 21.4345 11.7559 21.0596 13.2556 20.3097C14.4049 19.735 14.9796 19.4477 15.59 19.3144C15.8042 19.2676 16.0213 19.235 16.2398 19.2167C16.8625 19.1646 17.4907 19.2693 18.7471 19.4787C20.0205 19.6909 20.6571 19.797 21.122 19.5301C21.2798 19.4394 21.4199 19.3208 21.5353 19.18C21.875 18.7653 21.875 18.1199 21.875 16.829Z" fill="#56DF5C"/>
<path fill-rule="evenodd" clip-rule="evenodd" d="M12.875 2C9.56129 2 6.875 4.55211 6.875 7.70031C6.875 10.8238 8.78999 14.4687 11.7778 15.7721C12.4743 16.076 13.2757 16.076 13.9722 15.7721C16.96 14.4687 18.875 10.8238 18.875 7.70031C18.875 4.55211 16.1887 2 12.875 2ZM12.875 10C13.9796 10 14.875 9.10457 14.875 8C14.875 6.89543 13.9796 6 12.875 6C11.7704 6 10.875 6.89543 10.875 8C10.875 9.10457 11.7704 10 12.875 10Z" fill="#56DF5C"/>
</svg>
