<svg width="25" height="24" viewBox="0 0 25 24" fill="none" xmlns="http://www.w3.org/2000/svg">
<path fill-rule="evenodd" clip-rule="evenodd" d="M2.625 16.1436V4.9978C2.625 3.89963 3.5113 3.00752 4.6074 3.07489C5.58377 3.1349 6.73849 3.25351 7.625 3.48744C8.67421 3.76431 9.92111 4.35401 10.9073 4.87546C11.2144 5.03785 11.5409 5.15048 11.8752 5.21397V20.3926C11.5722 20.3258 11.2766 20.218 10.9974 20.0692C9.99793 19.5365 8.70645 18.9187 7.625 18.6334C6.74829 18.402 5.60928 18.2835 4.63986 18.2228C3.53105 18.1535 2.625 17.2546 2.625 16.1436ZM5.80708 8.27239C5.40523 8.17193 4.99803 8.41625 4.89757 8.8181C4.79711 9.21994 5.04143 9.62715 5.44328 9.72761L9.44328 10.7276C9.84512 10.8281 10.2523 10.5837 10.3528 10.1819C10.4532 9.78006 10.2089 9.37285 9.80708 9.27239L5.80708 8.27239ZM5.80708 12.2724C5.40523 12.1719 4.99803 12.4163 4.89757 12.8181C4.79711 13.2199 5.04143 13.6271 5.44328 13.7276L9.44328 14.7276C9.84512 14.8281 10.2523 14.5837 10.3528 14.1819C10.4532 13.7801 10.2089 13.3729 9.80708 13.2724L5.80708 12.2724Z" fill="#56DF5C"/>
<path fill-rule="evenodd" clip-rule="evenodd" d="M13.3752 20.3925C13.6781 20.3257 13.9735 20.218 14.2526 20.0692C15.2521 19.5365 16.5435 18.9187 17.625 18.6334C18.5017 18.402 19.6407 18.2835 20.6101 18.2228C21.719 18.1535 22.625 17.2546 22.625 16.1436V4.93319C22.625 3.86075 21.7788 2.98041 20.707 3.01775C19.5784 3.05706 18.1719 3.17403 17.125 3.48744C16.2174 3.75916 15.1603 4.30418 14.2988 4.80275C14.0074 4.97142 13.6959 5.0953 13.3752 5.17387V20.3925ZM19.8071 9.72761C20.2089 9.62715 20.4532 9.21994 20.3528 8.8181C20.2523 8.41625 19.8451 8.17193 19.4433 8.27239L15.4433 9.27239C15.0414 9.37285 14.7971 9.78006 14.8976 10.1819C14.998 10.5837 15.4052 10.8281 15.8071 10.7276L19.8071 9.72761ZM19.8071 13.7276C20.2089 13.6271 20.4532 13.2199 20.3528 12.8181C20.2523 12.4163 19.8451 12.1719 19.4433 12.2724L15.4433 13.2724C15.0414 13.3729 14.7971 13.7801 14.8976 14.1819C14.998 14.5837 15.4052 14.8281 15.8071 14.7276L19.8071 13.7276Z" fill="#56DF5C"/>
</svg>
